<svg width="248" height="248" viewBox="0 0 248 248" fill="none" xmlns="http://www.w3.org/2000/svg">
<path fill-rule="evenodd" clip-rule="evenodd" d="M27 123.245V138.49L40.5818 138.402C48.0519 138.354 55.1115 138.268 56.2703 138.211C57.4291 138.155 58.3771 138.042 58.3771 137.961C58.3771 137.879 58.8006 137.773 59.3184 137.725C59.836 137.677 60.643 137.534 61.1114 137.408C61.5799 137.282 61.963 137.119 61.963 137.045C61.963 136.971 62.2051 136.91 62.5009 136.91C62.7968 136.91 63.0388 136.85 63.0388 136.777C63.0388 136.704 63.2203 136.551 63.4422 136.437C63.6642 136.322 63.9868 136.177 64.1594 136.114C64.3319 136.05 64.4732 135.929 64.4732 135.845C64.4732 135.76 64.5573 135.691 64.66 135.691C64.7628 135.691 64.9668 135.593 65.1135 135.473C65.2601 135.354 65.6601 135.002 66.0024 134.693C66.3447 134.383 66.6248 134.039 66.6248 133.929C66.6248 133.818 66.8265 133.547 67.073 133.325C67.3314 133.092 67.5213 132.728 67.5213 132.465C67.5213 132.214 67.6365 131.897 67.7775 131.76C67.9182 131.623 68.1199 131.511 68.2257 131.511C68.3408 131.511 68.4177 131.929 68.4177 132.556C68.4177 133.137 68.4974 133.601 68.597 133.601C68.6957 133.601 68.7763 133.797 68.7763 134.037C68.7763 134.276 68.8516 134.472 68.9436 134.472C69.0356 134.472 69.1561 134.609 69.2115 134.777C69.2667 134.944 69.5122 135.317 69.7567 135.604C70.0011 135.891 70.264 136.183 70.3405 136.252C70.4171 136.321 70.6882 136.567 70.9432 136.797C71.1979 137.028 71.5813 137.271 71.7948 137.336C72.0084 137.402 72.183 137.529 72.183 137.618C72.183 137.708 72.3847 137.781 72.6312 137.781C72.8778 137.781 73.0795 137.859 73.0795 137.955C73.0795 138.051 73.2746 138.129 73.5128 138.129C73.7511 138.129 73.9744 138.211 74.0088 138.312C74.0432 138.412 74.5339 138.541 75.0994 138.597C75.665 138.654 76.1275 138.768 76.1275 138.85C76.1275 138.933 77.5799 139 79.3549 139C81.3869 139 82.5823 138.936 82.5823 138.826C82.5823 138.73 82.8268 138.652 83.1259 138.652C83.425 138.652 83.9593 138.534 84.3132 138.39C84.6673 138.247 85.1084 138.129 85.2936 138.129C85.4788 138.129 85.6303 138.051 85.6303 137.955C85.6303 137.859 85.8263 137.781 86.0658 137.781C86.3052 137.781 86.6222 137.663 86.7701 137.52C86.918 137.376 87.2062 137.258 87.4106 137.258C87.6148 137.258 87.7819 137.18 87.7819 137.084C87.7819 136.988 87.8683 136.91 87.9739 136.91C88.0797 136.91 88.2785 136.812 88.4161 136.692C88.5534 136.573 88.7863 136.377 88.9335 136.257C89.0807 136.137 89.2485 136.039 89.3065 136.039C89.3644 136.039 89.6177 135.839 89.8693 135.595C90.1208 135.351 90.4197 135.181 90.5336 135.217C90.6644 135.259 90.7591 135.87 90.7919 136.881L90.8434 138.478H96.4846C99.5872 138.478 102.144 138.458 102.166 138.434C102.188 138.41 102.249 134.864 102.3 130.553L102.395 122.716L104.143 122.666L105.891 122.617V127.238C105.891 130.203 105.955 131.86 106.07 131.86C106.169 131.86 106.249 132.271 106.249 132.774C106.248 133.277 106.389 134.08 106.562 134.559C106.735 135.038 106.938 135.456 107.012 135.488C107.085 135.52 107.146 135.624 107.146 135.721C107.146 135.817 107.593 136.32 108.14 136.838C108.687 137.357 109.285 137.781 109.47 137.781C109.655 137.781 109.832 137.84 109.865 137.912C109.898 137.983 110.339 138.179 110.846 138.347C111.352 138.515 112.018 138.652 112.325 138.652C112.632 138.652 112.884 138.73 112.884 138.826C112.884 138.937 114.497 139 117.366 139C119.831 139 121.848 138.932 121.848 138.85C121.848 138.768 122.559 138.661 123.428 138.612C124.297 138.564 125.182 138.434 125.395 138.324C125.712 138.159 125.763 138.02 125.673 137.56C125.613 137.25 125.494 136.865 125.409 136.704C125.324 136.542 125.255 135.935 125.255 135.354C125.255 134.773 125.179 134.298 125.086 134.298C124.992 134.298 124.891 133.931 124.862 133.483L124.807 132.667L123.552 132.711C122.861 132.735 122.27 132.828 122.237 132.917C122.204 133.006 121.7 133.079 121.116 133.079C120.529 133.079 120.055 133.001 120.055 132.904C120.055 132.809 119.888 132.73 119.684 132.73C119.48 132.73 119.197 132.618 119.057 132.481C118.916 132.345 118.8 132.149 118.8 132.046C118.8 131.943 118.72 131.86 118.621 131.86C118.506 131.86 118.442 130.205 118.442 127.244V122.629H122.919H127.396L127.462 127.897C127.509 131.728 127.595 133.391 127.776 133.993C127.914 134.448 128.088 134.82 128.165 134.82C128.241 134.82 128.303 134.983 128.303 135.181C128.303 135.379 128.404 135.651 128.527 135.785C128.651 135.918 128.852 136.144 128.976 136.287C129.099 136.43 129.2 136.629 129.2 136.729C129.2 136.828 129.286 136.91 129.392 136.91C129.497 136.91 129.696 137.008 129.834 137.128C129.971 137.248 130.204 137.444 130.351 137.563C130.498 137.683 130.743 137.781 130.895 137.781C131.047 137.781 131.172 137.859 131.172 137.955C131.172 138.051 131.357 138.129 131.584 138.129C131.811 138.129 132.082 138.212 132.186 138.313C132.291 138.415 132.831 138.543 133.388 138.599C133.944 138.655 134.399 138.768 134.399 138.85C134.399 138.933 136.416 139 138.882 139C141.347 139 143.364 138.933 143.364 138.852C143.364 138.77 144.091 138.657 144.979 138.602C146.014 138.537 146.685 138.411 146.849 138.253C147.043 138.064 147.065 137.844 146.941 137.327C146.852 136.954 146.777 136.36 146.775 136.006C146.773 135.653 146.69 135.315 146.591 135.256C146.493 135.196 146.412 134.682 146.412 134.113C146.412 133.544 146.453 133.079 146.502 133.079C146.551 133.079 146.753 133.235 146.95 133.427C147.147 133.619 147.309 133.854 147.309 133.949C147.309 134.045 147.47 134.28 147.667 134.472C147.865 134.663 148.147 134.82 148.295 134.82C148.443 134.82 148.564 134.904 148.564 135.007C148.564 135.11 148.679 135.305 148.82 135.442C148.961 135.579 149.162 135.691 149.268 135.691C149.374 135.691 149.46 135.769 149.46 135.865C149.46 135.961 149.547 136.039 149.652 136.039C149.758 136.039 149.957 136.137 150.094 136.257C150.232 136.377 150.465 136.573 150.612 136.692C150.759 136.812 151.044 136.91 151.246 136.91C151.447 136.91 151.612 136.988 151.612 137.084C151.612 137.18 151.753 137.261 151.926 137.264C152.098 137.267 152.396 137.385 152.587 137.525C152.779 137.666 153.122 137.781 153.349 137.781C153.577 137.781 153.763 137.851 153.763 137.937C153.763 138.024 154.106 138.133 154.525 138.18C154.944 138.227 155.61 138.35 156.005 138.454C156.399 138.558 157.105 138.645 157.573 138.648C158.042 138.65 158.425 138.73 158.425 138.826C158.425 138.938 160.218 139 163.445 139C166.207 139 168.466 138.933 168.466 138.851C168.466 138.769 169.101 138.659 169.877 138.607C170.654 138.556 171.455 138.427 171.659 138.321C171.862 138.216 172.356 138.129 172.757 138.129C173.158 138.129 173.486 138.051 173.486 137.955C173.486 137.859 173.672 137.781 173.9 137.781C174.128 137.781 174.471 137.666 174.662 137.525C174.853 137.385 175.192 137.267 175.414 137.264C175.635 137.261 175.817 137.18 175.817 137.084C175.817 136.988 175.978 136.91 176.176 136.91C176.373 136.91 176.534 136.84 176.534 136.755C176.534 136.669 176.736 136.55 176.982 136.49C177.229 136.43 177.431 136.304 177.431 136.21C177.431 136.116 177.552 136.039 177.7 136.039C177.848 136.039 177.969 135.966 177.969 135.877C177.969 135.787 178.129 135.665 178.325 135.605C178.521 135.544 179.247 134.957 179.939 134.3C180.63 133.643 181.196 133.026 181.196 132.929C181.196 132.829 180.448 132.718 179.448 132.671C178.486 132.626 176.046 132.475 174.024 132.336C172.002 132.197 170.203 132.023 170.025 131.949C169.821 131.865 169.472 131.935 169.083 132.138C168.744 132.316 168.466 132.522 168.466 132.596C168.466 132.67 168.345 132.73 168.197 132.73C168.049 132.73 167.927 132.789 167.927 132.861C167.926 132.933 167.678 133.129 167.374 133.296C167.071 133.464 166.587 133.601 166.3 133.601C166.012 133.601 165.776 133.679 165.776 133.775C165.776 133.882 164.94 133.949 163.625 133.949C162.31 133.949 161.473 133.882 161.473 133.775C161.473 133.679 161.191 133.601 160.846 133.601C160.501 133.601 160.218 133.528 160.218 133.439C160.218 133.349 160.044 133.223 159.831 133.157C159.619 133.091 159.134 132.74 158.755 132.375C158.377 132.011 158.067 131.589 158.067 131.438C158.067 131.287 157.999 131.163 157.917 131.163C157.835 131.163 157.678 130.879 157.569 130.531C157.41 130.03 157.42 129.851 157.615 129.661C157.819 129.463 159.876 129.421 169.542 129.421C179.425 129.421 181.261 129.46 181.478 129.67C181.686 129.872 181.734 130.722 181.734 134.198V138.478H187.753C192.731 138.478 193.817 138.435 194.028 138.229C194.24 138.024 194.285 137.016 194.285 132.492C194.285 129.473 194.356 126.961 194.444 126.908C194.531 126.856 194.656 126.538 194.721 126.201C194.786 125.865 194.916 125.59 195.01 125.59C195.104 125.59 195.181 125.394 195.181 125.154C195.181 124.915 195.262 124.719 195.36 124.719C195.459 124.719 195.54 124.599 195.54 124.452C195.54 124.306 195.661 124.141 195.809 124.086C195.957 124.03 196.078 123.876 196.078 123.743C196.078 123.609 196.239 123.5 196.436 123.5C196.633 123.5 196.795 123.43 196.795 123.345C196.795 123.259 196.997 123.14 197.243 123.08C197.49 123.02 197.691 122.894 197.691 122.8C197.691 122.698 198.517 122.629 199.731 122.629C201.175 122.629 201.967 122.709 202.442 122.901C203.077 123.159 203.13 123.155 203.45 122.821C203.636 122.628 203.787 122.349 203.787 122.201C203.787 122.053 203.868 121.933 203.967 121.933C204.065 121.933 204.146 121.815 204.146 121.671C204.146 121.528 204.225 121.41 204.322 121.41C204.419 121.41 204.548 121.214 204.61 120.975C204.672 120.735 204.795 120.539 204.883 120.539C204.971 120.539 205.043 120.441 205.043 120.32C205.043 120.199 205.244 119.889 205.491 119.631C205.737 119.373 205.939 119.035 205.939 118.88C205.939 118.725 206.04 118.489 206.163 118.356C206.286 118.223 206.488 117.996 206.611 117.853C206.735 117.71 206.835 117.437 206.835 117.246C206.835 116.986 206.676 116.869 206.208 116.783C205.863 116.721 205.58 116.599 205.58 116.514C205.58 116.429 205.177 116.36 204.684 116.36C204.191 116.36 203.787 116.281 203.787 116.185C203.787 116.077 202.801 116.011 201.188 116.011C199.574 116.011 198.588 116.077 198.588 116.185C198.588 116.281 198.305 116.36 197.96 116.36C197.615 116.36 197.333 116.429 197.333 116.515C197.333 116.6 197.131 116.719 196.884 116.779C196.638 116.84 196.436 116.966 196.436 117.059C196.436 117.154 196.269 117.23 196.065 117.23C195.861 117.23 195.578 117.342 195.437 117.479C195.296 117.616 195.181 117.812 195.181 117.915C195.181 118.017 195.095 118.101 194.989 118.101C194.883 118.101 194.682 118.213 194.541 118.35C194.4 118.487 194.285 118.683 194.285 118.785C194.285 118.888 194.209 118.972 194.117 118.972C194.025 118.972 193.899 119.129 193.836 119.32C193.774 119.512 193.567 119.669 193.376 119.669C193.186 119.669 193.03 119.59 193.03 119.494C193.03 119.399 193.11 119.32 193.209 119.32C193.313 119.32 193.388 118.746 193.388 117.946C193.388 116.853 193.33 116.549 193.105 116.465C192.949 116.407 190.326 116.36 187.277 116.36H181.734V120.278C181.734 122.774 181.669 124.197 181.555 124.197C181.456 124.197 181.375 124.04 181.375 123.848C181.375 123.657 181.296 123.5 181.199 123.5C181.103 123.5 180.973 123.304 180.911 123.065C180.849 122.825 180.727 122.629 180.639 122.629C180.551 122.629 180.479 122.467 180.479 122.269C180.479 122.07 180.363 121.796 180.223 121.659C180.082 121.522 179.88 121.41 179.774 121.41C179.669 121.41 179.582 121.328 179.582 121.229C179.582 121.129 179.481 120.927 179.358 120.781C179.235 120.635 178.942 120.344 178.707 120.135C178.472 119.926 178.175 119.658 178.047 119.538C177.919 119.418 177.763 119.32 177.7 119.32C177.636 119.32 177.472 119.222 177.334 119.103C177.197 118.983 176.964 118.787 176.817 118.667C176.67 118.547 176.465 118.449 176.362 118.449C176.26 118.449 176.176 118.371 176.176 118.275C176.176 118.179 176.008 118.101 175.804 118.101C175.6 118.101 175.312 117.984 175.164 117.84C175.016 117.696 174.699 117.579 174.46 117.579C174.22 117.579 174.024 117.509 174.024 117.424C174.024 117.339 173.802 117.227 173.531 117.176C173.26 117.124 172.675 116.988 172.231 116.874C171.787 116.76 171.284 116.598 171.113 116.513C170.942 116.429 170.276 116.36 169.634 116.36C168.975 116.36 168.466 116.284 168.466 116.185C168.466 116.073 166.673 116.011 163.445 116.011C160.218 116.011 158.425 116.073 158.425 116.185C158.425 116.285 157.887 116.36 157.17 116.36C156.48 116.36 155.915 116.431 155.915 116.517C155.915 116.604 155.512 116.729 155.018 116.795C154.525 116.861 154.122 116.986 154.122 117.073C154.122 117.159 153.84 117.23 153.494 117.23C153.149 117.23 152.867 117.309 152.867 117.404C152.867 117.5 152.752 117.579 152.612 117.579C152.473 117.579 152.089 117.716 151.761 117.883C151.432 118.051 151.137 118.247 151.104 118.319C151.071 118.391 150.889 118.449 150.7 118.449C150.511 118.449 150.357 118.519 150.357 118.605C150.357 118.69 150.155 118.809 149.909 118.869C149.662 118.929 149.46 119.056 149.46 119.149C149.46 119.243 149.376 119.32 149.272 119.32C149.169 119.32 148.685 119.708 148.197 120.183C147.708 120.657 147.309 121.127 147.309 121.228C147.309 121.328 147.098 121.41 146.841 121.41C146.447 121.41 146.389 121.349 146.471 121.018C146.524 120.803 146.584 119.804 146.602 118.798C146.621 117.792 146.577 116.832 146.505 116.664C146.387 116.39 146.052 116.36 143.166 116.36H139.957V112.18V108H139.509C139.263 108 139.061 108.07 139.061 108.155C139.061 108.24 138.779 108.361 138.433 108.424C138.088 108.487 137.806 108.613 137.806 108.704C137.806 108.796 137.604 108.871 137.358 108.871C137.111 108.871 136.909 108.949 136.909 109.045C136.909 109.141 136.662 109.219 136.359 109.219C136.056 109.219 135.687 109.337 135.539 109.48C135.391 109.624 135.074 109.742 134.835 109.742C134.595 109.742 134.399 109.82 134.399 109.916C134.399 110.012 134.117 110.09 133.772 110.09C133.427 110.09 133.144 110.162 133.144 110.25C133.144 110.338 132.903 110.462 132.608 110.525C132.314 110.588 132.026 110.711 131.97 110.8C131.914 110.888 131.631 110.961 131.341 110.961C131.051 110.961 130.813 111.039 130.813 111.135C130.813 111.231 130.632 111.312 130.41 111.315C130.188 111.319 129.805 111.433 129.558 111.57C129.312 111.707 128.928 111.822 128.707 111.825C128.485 111.829 128.303 111.91 128.303 112.006C128.303 112.101 128.101 112.18 127.855 112.18H127.407V114.27V116.36H122.924H118.442V112.18C118.442 108.58 118.404 108 118.173 108C118.025 108 117.904 108.078 117.904 108.174C117.904 108.27 117.722 108.351 117.5 108.354C117.278 108.358 116.895 108.473 116.649 108.61C116.402 108.746 116.019 108.861 115.797 108.865C115.575 108.868 115.394 108.94 115.394 109.025C115.394 109.11 115.172 109.222 114.901 109.273C114.63 109.325 114.105 109.471 113.735 109.597C113.365 109.723 113.063 109.886 113.063 109.958C113.063 110.031 112.78 110.09 112.435 110.09C112.09 110.09 111.808 110.16 111.808 110.245C111.808 110.33 111.525 110.451 111.18 110.514C110.835 110.577 110.553 110.703 110.553 110.794C110.553 110.886 110.311 110.961 110.015 110.961C109.719 110.961 109.477 111.039 109.477 111.135C109.477 111.231 109.269 111.309 109.016 111.309C108.762 111.309 108.434 111.427 108.286 111.57C108.138 111.714 107.821 111.831 107.582 111.831C107.342 111.831 107.146 111.91 107.146 112.006C107.146 112.101 106.979 112.18 106.775 112.18C106.57 112.18 106.288 112.292 106.147 112.429C105.957 112.613 105.891 113.155 105.891 114.519V116.36H97.9122H89.9335V122.629C89.9335 126.693 89.8703 128.899 89.7542 128.899C89.6555 128.899 89.5749 129.077 89.5749 129.295C89.5749 129.514 89.4364 129.886 89.2674 130.123C89.0983 130.36 88.8159 130.705 88.6398 130.891C88.4638 131.077 88.3198 131.292 88.3198 131.37C88.3198 131.448 88.1988 131.511 88.0508 131.511C87.9029 131.511 87.7819 131.59 87.7819 131.685C87.7819 131.781 87.587 131.86 87.3485 131.86C87.1102 131.86 86.8816 131.957 86.8406 132.077C86.7873 132.232 86.2437 132.295 84.952 132.295C83.74 132.295 83.0637 132.223 82.914 132.077C82.7908 131.958 82.5043 131.86 82.2774 131.86C82.0506 131.86 81.8651 131.781 81.8651 131.685C81.8651 131.59 81.7618 131.511 81.6356 131.511C81.5093 131.511 81.2495 131.119 81.0582 130.64C80.8669 130.162 80.6475 129.77 80.5705 129.77C80.4936 129.77 80.4307 126.752 80.4307 123.065V116.36H74.338H68.2453L68.1348 116.787C68.074 117.022 68.0523 119.648 68.0866 122.621C68.1208 125.595 68.1228 128.028 68.0912 128.028C68.0595 128.028 67.9182 127.916 67.7775 127.779C67.6365 127.643 67.5213 127.368 67.5213 127.17C67.5213 126.971 67.446 126.809 67.354 126.809C67.262 126.809 67.1325 126.643 67.0664 126.44C67 126.237 66.5574 125.696 66.0826 125.237C65.6076 124.778 65.0513 124.351 64.8461 124.288C64.641 124.225 64.4732 124.1 64.4732 124.011C64.4732 123.921 64.3118 123.848 64.1146 123.848C63.9174 123.848 63.756 123.77 63.756 123.674C63.756 123.578 63.514 123.5 63.2181 123.5C62.9223 123.5 62.6802 123.43 62.6802 123.345C62.6802 123.26 62.3978 123.139 62.0527 123.076C61.7075 123.013 61.4251 122.887 61.4251 122.796C61.4251 122.704 61.0162 122.629 60.5161 122.629C59.6761 122.629 59.6115 122.599 59.6644 122.237C59.7105 121.923 59.8541 121.835 60.3942 121.792C60.7639 121.762 61.0665 121.664 61.0665 121.574C61.0665 121.484 61.2683 121.41 61.5148 121.41C61.7613 121.41 61.9636 121.351 61.9641 121.279C61.9648 121.208 62.2133 121.012 62.5165 120.844C62.8197 120.676 63.145 120.539 63.2393 120.539C63.3336 120.539 63.7709 120.18 64.2109 119.74C64.6511 119.3 65.0111 118.83 65.0111 118.695C65.0111 118.56 65.0918 118.449 65.1904 118.449C65.289 118.449 65.3697 118.332 65.3697 118.188C65.3697 118.045 65.4419 117.927 65.5302 117.927C65.6184 117.927 65.7349 117.633 65.7889 117.274C65.843 116.915 65.9416 116.364 66.0082 116.049C66.0747 115.735 66.0223 115.01 65.8918 114.438C65.7611 113.867 65.5902 113.399 65.512 113.399C65.4337 113.399 65.3697 113.239 65.3697 113.043C65.3697 112.848 65.2687 112.569 65.1456 112.425C65.0224 112.28 64.6215 111.872 64.2546 111.518C63.888 111.163 63.4677 110.776 63.3209 110.656C63.174 110.536 62.9698 110.438 62.8671 110.438C62.7643 110.438 62.6802 110.36 62.6802 110.264C62.6802 110.168 62.5189 110.09 62.3216 110.09C62.1244 110.09 61.963 110.028 61.963 109.953C61.963 109.878 61.7287 109.682 61.4423 109.518C61.1558 109.354 60.7524 109.219 60.5459 109.219C60.3391 109.219 60.1701 109.141 60.1701 109.045C60.1701 108.949 59.9038 108.871 59.5784 108.871C59.2529 108.871 58.9013 108.788 58.797 108.687C58.6928 108.585 58.1522 108.457 57.5957 108.401C57.0393 108.345 56.5841 108.232 56.5841 108.15C56.5841 108.067 49.9298 108 41.7921 108H27V123.245ZM50.0311 114.43C50.0874 114.519 50.3747 114.643 50.6693 114.706C50.964 114.768 51.2052 114.892 51.2052 114.98C51.2052 115.068 51.3665 115.14 51.5638 115.14C51.761 115.14 51.9224 115.248 51.9224 115.38C51.9224 115.512 52.0434 115.718 52.1913 115.837C52.3742 115.984 52.4603 116.379 52.4603 117.07C52.4603 117.921 52.3876 118.156 52.012 118.521C51.7655 118.76 51.5638 119.038 51.5638 119.138C51.5638 119.238 51.3621 119.32 51.1155 119.32C50.869 119.32 50.6673 119.387 50.6673 119.47C50.6673 119.552 49.8576 119.709 48.8679 119.818C47.8781 119.927 45.787 120.017 44.2208 120.017C42.6547 120.017 41.2456 119.969 41.0896 119.911C40.8473 119.821 40.8059 119.401 40.8059 117.038V114.27H45.3674C47.9615 114.27 49.973 114.339 50.0311 114.43ZM213.29 115.315C213.29 115.41 213.088 115.489 212.842 115.489C212.595 115.489 212.394 115.562 212.394 115.651C212.394 115.741 212.212 115.869 211.99 115.936C211.769 116.004 211.206 116.421 210.74 116.862C210.274 117.304 209.891 117.73 209.888 117.809C209.886 117.887 209.763 118.069 209.615 118.213C209.467 118.357 209.346 118.665 209.346 118.897C209.346 119.13 209.265 119.32 209.166 119.32C209.058 119.32 208.987 120.046 208.987 121.149C208.987 122.252 209.058 122.978 209.166 122.978C209.265 122.978 209.346 123.173 209.346 123.413C209.346 123.652 209.425 123.848 209.522 123.848C209.618 123.848 209.748 124.044 209.81 124.284C209.872 124.523 209.994 124.719 210.082 124.719C210.17 124.719 210.242 124.837 210.242 124.98C210.242 125.124 210.334 125.242 210.445 125.242C210.557 125.242 210.779 125.381 210.938 125.551C211.098 125.721 211.447 125.995 211.715 126.16C211.983 126.326 212.319 126.461 212.462 126.461C212.605 126.461 212.754 126.554 212.794 126.668C212.844 126.814 213.505 126.876 214.994 126.876C216.482 126.876 217.143 126.814 217.193 126.668C217.233 126.554 217.419 126.461 217.608 126.461C217.797 126.461 217.952 126.388 217.952 126.298C217.952 126.209 218.125 126.083 218.336 126.017C218.548 125.952 218.951 125.67 219.233 125.39C219.515 125.11 219.745 124.766 219.745 124.626C219.745 124.486 219.808 124.371 219.885 124.371C219.963 124.371 220.165 124.143 220.334 123.865C220.503 123.587 220.641 123.195 220.641 122.994C220.641 122.793 220.722 122.629 220.821 122.629C220.928 122.629 221 121.962 221 120.975C221 119.988 220.928 119.32 220.821 119.32C220.722 119.32 220.641 119.124 220.641 118.885C220.641 118.645 220.566 118.449 220.474 118.449C220.382 118.449 220.251 118.279 220.184 118.072C220.116 117.864 219.68 117.325 219.216 116.874C218.751 116.423 218.196 115.999 217.982 115.933C217.768 115.868 217.593 115.741 217.593 115.651C217.593 115.562 217.392 115.489 217.145 115.489C216.899 115.489 216.697 115.41 216.697 115.315C216.697 115.211 216.01 115.14 214.994 115.14C213.977 115.14 213.29 115.211 213.29 115.315ZM216.338 116.185C216.338 116.281 216.528 116.36 216.759 116.36C216.991 116.36 217.348 116.502 217.555 116.675C217.761 116.849 218.136 117.142 218.389 117.326C218.642 117.51 218.848 117.76 218.848 117.881C218.848 118.002 218.969 118.101 219.117 118.101C219.267 118.101 219.386 118.256 219.386 118.449C219.386 118.641 219.467 118.798 219.566 118.798C219.664 118.798 219.745 119.033 219.745 119.32C219.745 119.608 219.826 119.843 219.924 119.843C220.027 119.843 220.104 120.365 220.104 121.062C220.104 121.758 220.027 122.281 219.924 122.281C219.826 122.281 219.745 122.555 219.745 122.89C219.745 123.226 219.682 123.5 219.604 123.5C219.527 123.5 219.309 123.755 219.12 124.066C218.931 124.377 218.611 124.767 218.409 124.931C218.207 125.095 217.941 125.233 217.817 125.236C217.694 125.239 217.593 125.32 217.593 125.416C217.593 125.512 217.439 125.59 217.25 125.59C217.061 125.59 216.873 125.687 216.832 125.806C216.78 125.959 216.219 126.021 214.904 126.021C213.589 126.021 213.028 125.959 212.976 125.806C212.935 125.687 212.741 125.59 212.544 125.59C212.347 125.59 211.879 125.289 211.504 124.921C211.129 124.553 210.767 124.082 210.699 123.876C210.632 123.669 210.501 123.5 210.409 123.5C210.317 123.5 210.242 123.304 210.242 123.065C210.242 122.825 210.161 122.629 210.063 122.629C209.957 122.629 209.884 122.02 209.884 121.149C209.884 120.278 209.957 119.669 210.063 119.669C210.161 119.669 210.242 119.435 210.242 119.149C210.242 118.742 210.495 118.385 211.411 117.495C212.327 116.605 212.695 116.36 213.114 116.36C213.408 116.36 213.649 116.281 213.649 116.185C213.649 116.085 214.217 116.011 214.994 116.011C215.77 116.011 216.338 116.085 216.338 116.185ZM212.872 117.695C212.806 117.759 212.752 119.287 212.752 121.091V124.371H213.201C213.644 124.371 213.649 124.353 213.649 122.89V121.41H214.289C214.641 121.41 215.045 121.522 215.186 121.659C215.326 121.796 215.442 121.992 215.442 122.094C215.442 122.197 215.522 122.281 215.621 122.281C215.72 122.281 215.8 122.395 215.8 122.534C215.8 122.674 216.002 122.983 216.249 123.223C216.495 123.462 216.697 123.819 216.697 124.015C216.697 124.306 216.812 124.371 217.324 124.371C217.67 124.371 217.952 124.292 217.952 124.197C217.952 124.101 217.871 124.022 217.773 124.022C217.674 124.022 217.593 123.941 217.593 123.841C217.593 123.741 217.392 123.448 217.145 123.189C216.899 122.931 216.697 122.628 216.697 122.515C216.697 122.402 216.627 122.284 216.541 122.252C216.456 122.22 216.329 122.017 216.26 121.802C216.167 121.51 216.207 121.41 216.416 121.41C216.57 121.41 216.697 121.332 216.697 121.236C216.697 121.14 216.818 121.062 216.966 121.062C217.114 121.062 217.235 120.944 217.235 120.801C217.235 120.657 217.315 120.539 217.414 120.539C217.513 120.539 217.593 120.103 217.593 119.569C217.593 118.96 217.498 118.506 217.337 118.35C217.196 118.213 217.029 118.101 216.966 118.101C216.902 118.101 216.729 117.984 216.582 117.84C216.381 117.645 215.889 117.579 214.652 117.579C213.739 117.579 212.938 117.631 212.872 117.695ZM216.441 118.698C216.588 118.841 216.697 119.285 216.697 119.743V120.539L215.442 120.565C214.751 120.58 214.086 120.599 213.963 120.609C213.81 120.621 213.721 120.277 213.685 119.538L213.632 118.449H214.908C215.775 118.449 216.267 118.529 216.441 118.698ZM165.776 121.236C165.776 121.332 166.059 121.41 166.404 121.41C166.749 121.41 167.031 121.488 167.031 121.584C167.031 121.68 167.152 121.758 167.3 121.758C167.448 121.758 167.569 121.876 167.569 122.02C167.569 122.163 167.656 122.281 167.761 122.281C167.867 122.281 168.069 122.393 168.21 122.53C168.351 122.666 168.466 122.862 168.466 122.965C168.466 123.068 168.546 123.152 168.645 123.152C168.744 123.152 168.824 123.275 168.824 123.425C168.824 123.576 168.945 123.817 169.093 123.96C169.241 124.104 169.362 124.529 169.362 124.906V125.59H163.466C157.722 125.59 157.568 125.581 157.477 125.242C157.425 125.05 157.456 124.85 157.546 124.796C157.635 124.742 157.708 124.507 157.708 124.273C157.708 124.04 157.789 123.848 157.887 123.848C157.986 123.848 158.067 123.692 158.067 123.5C158.067 123.308 158.147 123.152 158.246 123.152C158.344 123.152 158.425 123.034 158.425 122.89C158.425 122.747 158.509 122.629 158.613 122.629C158.716 122.629 159.002 122.433 159.248 122.194C159.495 121.954 159.814 121.758 159.957 121.758C160.101 121.758 160.218 121.68 160.218 121.584C160.218 121.488 160.42 121.41 160.666 121.41C160.913 121.41 161.115 121.332 161.115 121.236C161.115 121.129 162.011 121.062 163.445 121.062C164.88 121.062 165.776 121.129 165.776 121.236ZM145.918 122.73C145.975 122.785 145.887 123.079 145.724 123.383C145.56 123.687 145.366 123.962 145.292 123.993C145.218 124.025 145.157 124.398 145.157 124.821C145.157 125.244 145.076 125.59 144.978 125.59C144.869 125.59 144.799 126.345 144.799 127.506C144.799 128.667 144.869 129.421 144.978 129.421C145.076 129.421 145.157 129.774 145.157 130.205C145.157 130.636 145.238 130.989 145.336 130.989C145.435 130.989 145.516 131.185 145.516 131.424C145.516 131.695 145.617 131.86 145.785 131.86C145.933 131.86 146.054 131.931 146.054 132.019C146.054 132.107 146.005 132.303 145.945 132.455C145.861 132.666 145.57 132.73 144.69 132.73C144.045 132.73 143.543 132.807 143.543 132.904C143.543 133.001 143.065 133.079 142.468 133.079C141.87 133.079 141.392 133.001 141.392 132.904C141.392 132.809 141.23 132.73 141.033 132.73C140.836 132.73 140.513 132.574 140.316 132.382C139.975 132.051 139.957 131.802 139.957 127.331V122.629H142.886C144.497 122.629 145.861 122.674 145.918 122.73ZM49.0536 125.764C49.0536 125.863 49.5872 125.938 50.296 125.938C51.1611 125.938 51.6197 126.017 51.8071 126.199C51.955 126.343 52.2431 126.461 52.4475 126.461C52.6517 126.461 52.8189 126.53 52.8189 126.614C52.8189 126.699 52.9799 126.809 53.1766 126.859C53.3732 126.909 53.5905 127.095 53.6596 127.271C53.7286 127.448 53.9 127.706 54.0406 127.844C54.2285 128.028 54.269 128.351 54.1937 129.06C54.1374 129.591 54.0067 130.053 53.9032 130.086C53.8 130.12 53.7153 130.258 53.7153 130.394C53.7153 130.53 53.6312 130.64 53.5285 130.64C53.4258 130.64 53.2212 130.739 53.074 130.858C52.9268 130.978 52.6939 131.174 52.5565 131.294C52.419 131.413 52.0588 131.511 51.7558 131.511C51.453 131.511 51.2052 131.59 51.2052 131.685C51.2052 131.798 49.3525 131.86 46.0055 131.86H40.8059V128.979C40.8059 126.922 40.8701 126.027 41.03 125.85C41.2104 125.652 42.0165 125.602 45.1539 125.597C47.6388 125.592 49.0536 125.653 49.0536 125.764Z" fill="black"/>
</svg>
