<?xml version="1.0" encoding="utf-8"?>
<!-- Generator: Adobe Illustrator 22.1.0, SVG Export Plug-In . SVG Version: 6.00 Build 0)  -->
<svg version="1.1" id="svg3422" xmlns:svg="http://www.w3.org/2000/svg"
	 xmlns="http://www.w3.org/2000/svg" xmlns:xlink="http://www.w3.org/1999/xlink" x="0px" y="0px" width="400px" height="220px"
	 viewBox="0 0 400 220" style="enable-background:new 0 0 400 220;" xml:space="preserve">
<path id="path2573" d="M282.6,88.3V119l-0.5,3.5c0,0-0.5,1.7-1.9,3l-2.5,1.7l-3.1,0.6c0,0-2.3,0-4.3-1.3c0,0-1.9-1.2-3-3.2l-2.8,1.3
	c0,0,1.3,2.9,4,4.6c0,0,2.7,1.8,6,1.8l4.2-0.8c0,0,2.1-0.8,3.7-2.4c0,0,2-2,2.8-4.5l0.5-4.7V88.3H282.6"/>
<path id="path2575" d="M38,95.3c0,0-2.3-1.9-5.2-2.9c0,0-2.9-1.1-6-1.1c0,0-7.4,0-12.6,5.3c0,0-5.3,5.4-5.3,12.8c0,0,0,7.4,5.3,12.7
	c0,0,5.2,5.4,12.6,5.4l6-1.1l5.2-2.9l2.2,2.4c0,0-2.8,2.2-6.2,3.5c0,0-3.5,1.3-7.3,1.3c0,0-8.7,0-15-6.4c0,0-6.3-6.3-6.3-15.1
	c0,0,0-8.8,6.3-15.2c0,0,6.2-6.3,15-6.3c0,0,3.8,0,7.3,1.3c0,0,3.4,1.3,6.2,3.5L38,95.3"/>
<path id="path2577" d="M54.9,103.2c0,0-5.7,0-9.9,4c0,0-4,4-4,9.8c0,0,0,5.7,4,9.9c0,0,4.1,4,9.9,4c0,0,3.3,0,6.2-1.5
	c0,0,2.9-1.5,4.8-3.9v4.8H69v-26.2h-3.2v4.6c0,0-1.9-2.5-4.8-3.9C61.1,104.7,58.2,103.2,54.9,103.2z M54.9,106.3c0,0,4.5,0,7.6,3.1
	c0,0,3.1,3.2,3.1,7.6c0,0,0,4.5-3.1,7.6c0,0-3.2,3.2-7.6,3.2c0,0-4.6,0-7.6-3.2c0,0-3.2-3.2-3.2-7.6c0,0,0-4.5,3.2-7.6
	C47.3,109.4,50.5,106.3,54.9,106.3z"/>
<path id="path2581" d="M333.4,103.2c0,0-5.7,0-9.9,4c0,0-4,4-4,9.8c0,0,0,5.7,4,9.9c0,0,4.1,4,9.9,4c0,0,3.3,0,6.2-1.5l4.8-3.9v4.8
	h3.2v-26.2h-3.2v4.6c0,0-1.9-2.5-4.8-3.9C339.6,104.7,336.7,103.2,333.4,103.2z M333.4,106.3c0,0,4.5,0,7.6,3.1c0,0,3.1,3.2,3.1,7.6
	c0,0,0,4.5-3.1,7.6c0,0-3.2,3.2-7.6,3.2c0,0-4.5,0-7.6-3.2c0,0-3.2-3.1-3.2-7.6c0,0,0-4.5,3.2-7.6
	C325.8,109.4,329,106.3,333.4,106.3z"/>
<path id="path2585" d="M78,88.3v42h-3.2v-42H78"/>
<path id="path2587" d="M106.9,104.1L94.1,132l-12.8-27.9h3.5l9.3,20.4l9.3-20.4H106.9"/>
<path id="path2589" d="M112.6,92.1l-1.4-0.5l-0.5-1.4l0.5-1.4l1.4-0.5l1.4,0.5l0.5,1.4l-0.5,1.4L112.6,92.1"/>
<path id="path2591" d="M114.1,104.1v26.2h-3.2v-26.2H114.1"/>
<path id="path2593" d="M130.3,103.2c0,0,4.3,0,7.4,3.1c0,0,3.1,3.1,3.1,7.4v16.5h-3.2v-16.5c0,0,0-3.1-2.1-5.3c0,0-2.1-2.1-5.2-2.1
	c0,0-3.2,0-5.2,2c0,0-2.2,2-2.2,5.4v16.5h-3.2v-26.2h3.2v2.5c0,0,1.2-1.7,3.3-2.5L130.3,103.2"/>
<path id="path2595" d="M188.9,88.3v42h-3.2v-42H188.9"/>
<path id="path2599" d="M207.7,103.2c0,0-5.7,0-9.9,4c0,0-4,4-4,9.9c0,0,0,5.7,4,9.8c0,0,4.1,4,9.9,4c0,0,4,0,7.4-2.2
	c0,0,3.3-2,5-5.5l-2.8-1.3c0,0-1.4,2.7-3.9,4.2c0,0-2.7,1.7-5.7,1.7c0,0-4.5,0-7.5-3.1c0,0-3.2-3.1-3.3-7.4h24.6v-0.2
	c0,0,0-5.8-4-9.9C217.5,107.2,213.5,103.2,207.7,103.2z M207.7,106.3c0,0,3.6,0,6.6,2.2c0,0,2.9,2.1,3.8,5.6H218h-20.7
	c0,0,1-3.5,3.8-5.6C201.2,108.5,204,106.3,207.7,106.3z"/>
<path id="path2603" d="M303,103.2c0,0-5.7,0-9.9,4c0,0-4,4-4,9.9c0,0,0,5.7,4,9.8c0,0,4.1,4,9.9,4c0,0,4,0,7.3-2.2
	c0,0,3.4-2,5.1-5.5l-2.8-1.3c0,0-1.4,2.7-3.9,4.2c0,0-2.7,1.7-5.7,1.7c0,0-4.5,0-7.6-3.1c0,0-3.1-3.1-3.2-7.4h24.6v-0.2
	c0,0,0-5.8-4-9.9C312.7,107.2,308.7,103.2,303,103.2z M303,106.3c0,0,3.6,0,6.6,2.2c0,0,2.9,2.1,3.8,5.6h-0.1h-20.7
	c0,0,1-3.5,3.8-5.6C296.4,108.5,299.3,106.3,303,106.3z"/>
<path id="path2605" d="M256.6,113.7v16.5h-3.2v-16.5c0,0,0-3.1-2.1-5.3c0,0-2.1-2.1-5.2-2.1c0,0-3.2,0-5.3,2c0,0-2.1,2-2.1,5.4v16.5
	h-3.2v-26.2h3.2v2.5c0,0,1.2-1.7,3.2-2.5l4.2-0.8c0,0,4.3,0,7.4,3.1C253.6,106.3,256.6,109.4,256.6,113.7"/>
<path id="path2607" d="M374,113.7v16.5H371v-16.5c0,0,0-3.1-2.1-5.3c0,0-2.1-2.1-5.3-2.1c0,0-3.1,0-5.2,2c0,0-2.1,2-2.1,5.4v16.5
	H353v-26.2h3.2l-0.1,2.5c0,0,1.3-1.7,3.3-2.5l4.1-0.8c0,0,4.3,0,7.4,3.1C371,106.3,374,109.4,374,113.7"/>
<path id="path2609" d="M228.1,92.1l-1.4-0.5c0,0-0.5-0.5-0.5-1.4c0,0,0-0.7,0.5-1.4l1.4-0.5c0,0,0.8,0,1.4,0.5l0.5,1.4l-0.5,1.4
	L228.1,92.1"/>
<path id="path2611" d="M229.7,104.1v26.2h-3.2v-26.2H229.7"/>
<path id="path2613" d="M228.1,92.1l-1.4-0.5c0,0-0.5-0.5-0.5-1.4c0,0,0-0.7,0.5-1.4l1.4-0.5c0,0,0.8,0,1.4,0.5l0.5,1.4l-0.5,1.4
	L228.1,92.1"/>
<path id="path2615" d="M229.7,104.1v26.2h-3.2v-26.2H229.7"/>
<path id="path2617" d="M176.8,88.3l-17.5,19v-19h-3.2v42h3.2V112l2.9-3.2l15,21.4h3.9l-16.7-23.9L181,88.3H176.8"/>
<path id="path2619" d="M392.1,116.9l-2.3-1.5l-2.7-1.1l-3.6-1.6c0,0-1.6-1.1-1.6-2.9c0,0,0-1.6,1.4-2.7c0,0,1.3-1.1,2.8-1.1
	c0,0,1.5,0,2.7,0.6c0,0,1.1,0.7,1.7,2.1l2.8-1.4c0,0-1-1.9-2.9-3.2c0,0-2-1.2-4-1.2l-2.9,0.5c0,0-1.3,0.4-2.3,1.4c0,0-1.1,1-1.6,2.2
	c0,0-0.6,1.3-0.6,2.8c0,0,0,3,2.7,5c0,0,1.5,1.1,5.1,2.4l1.9,0.7l1.6,1c0,0,1.5,1.2,1.5,3.2c0,0,0,2.3-1.7,3.9c0,0-1.6,1.6-3.9,1.6
	c0,0-2.3,0-4-1.4c0,0-1.5-1.3-2.2-3.7l-3,1c0,0,0.8,3.2,3.3,5.2c0,0,2.5,1.9,5.9,1.9l3.3-0.6c0,0,1.6-0.6,2.9-1.7l1.8-2.8l0.6-3.3
	C394.5,122.5,394.5,118.9,392.1,116.9"/>
</svg>
