<svg width="248" height="248" viewBox="0 0 248 248" fill="none" xmlns="http://www.w3.org/2000/svg">
<path fill-rule="evenodd" clip-rule="evenodd" d="M124.577 155.567V93.4338H205.732V155.567H124.577Z" fill="#BBBCBF"/>
<path fill-rule="evenodd" clip-rule="evenodd" d="M205.732 93.4338V63H43V93.4338H205.732ZM205.732 186V155.567H43V186H205.732Z" fill="black"/>
<path fill-rule="evenodd" clip-rule="evenodd" d="M56.3354 72.7761H52.7428V71.4029H61.4911V72.7761H57.8781V86.5522H56.3354V72.7761ZM86.6572 71.1362C91.2008 71.1362 94.9193 74.6622 94.9193 78.9873C94.9193 83.292 91.1795 86.8189 86.6359 86.8189C82.1136 86.8189 78.3737 83.2725 78.3737 79.0076C78.3737 74.6622 82.0932 71.1362 86.6572 71.1362Z" fill="white"/>
<path fill-rule="evenodd" clip-rule="evenodd" d="M86.6359 85.4448C90.3128 85.4448 93.3554 82.5336 93.3554 78.9873C93.3554 75.4409 90.3341 72.5094 86.6572 72.5094C82.959 72.5094 79.9376 75.4409 79.9376 79.0484C79.9376 82.5133 83.0016 85.4448 86.6359 85.4448Z" fill="black"/>
<path fill-rule="evenodd" clip-rule="evenodd" d="M114.638 71.4029H117.046L122.859 84.2966L128.691 71.4029H131.099V86.5522H129.557V73.0631L123.534 86.5522H122.16L116.181 73.0631V86.5522H114.638V71.4029ZM149.698 71.4029H152.107L157.917 84.2966L163.75 71.4029H166.159V86.5522H164.617V73.0631L158.594 86.5522H157.219L151.24 73.0631V86.5522H149.698V71.4029ZM189.998 81.4882L184.568 71.4029H186.3L190.76 79.8901L195.302 71.4029H197.015L191.541 81.4882V86.5522H189.998V81.4882ZM52.5306 163.094H54.0733V169.754H62.1882V163.094H63.7308V178.242H62.1882V171.128H54.0733V178.242H52.5306V163.094ZM75.2051 163.094H76.7477V178.242H75.2051V163.094ZM88.4312 163.094H89.9738V176.867H96.4619V178.242H88.4312V163.094ZM106.985 163.094H114.973V164.466H108.528V169.939H114.741V171.314H108.528V178.242H106.985V163.094ZM125.771 163.094H127.313V178.242H125.771V163.094ZM155.078 171.568C154.699 175.688 151.127 178.824 146.774 178.824C142.188 178.824 138.343 175.257 138.343 170.973C138.343 166.649 142.103 163.142 146.752 163.142C148.95 163.142 150.915 163.882 152.543 165.336C153.578 166.258 153.79 166.526 154.128 167.448H152.352C151.317 165.704 149.077 164.516 146.775 164.516C143.013 164.516 139.906 167.427 139.906 170.973C139.906 174.561 143.013 177.451 146.858 177.451C149.753 177.451 152.522 175.483 153.199 172.941H144.408V171.568H155.078ZM166.488 163.094H175.047V164.466H168.031V169.899H174.814V171.272H168.031V176.867H175.047V178.242H166.488V163.094ZM186.352 163.094H190.262C192.099 163.094 193.241 163.257 194.087 163.667C195.799 164.466 196.854 166.107 196.854 167.991C196.854 170.515 194.953 172.42 192.248 172.583L196.623 178.242H194.678L189.415 171.375H190.007C192.121 171.353 192.692 171.272 193.536 170.821C194.066 170.541 194.51 170.122 194.819 169.609C195.128 169.096 195.291 168.508 195.291 167.909C195.291 166.74 194.615 165.592 193.6 165.039C192.839 164.608 192.058 164.465 190.6 164.465H187.895V178.241H186.352V163.094Z" fill="white"/>
</svg>
